G04 ================== begin FILE IDENTIFICATION RECORD ==================*
G04 Layout Name:  C:/Users/user/Desktop/work/DA_CONVERTOR/allegro/DA_CONVERTOR2.brd*
G04 Film Name:    design*
G04 File Format:  Gerber RS274X*
G04 File Origin:  Cadence Allegro 17.2-P019*
G04 Origin Date:  Wed Jul 31 16:17:44 2019*
G04 *
G04 Layer:  BOARD GEOMETRY/DIMENSION*
G04 Layer:  VIA CLASS/BOTTOM*
G04 Layer:  VIA CLASS/TOP*
G04 Layer:  ROUTE KEEPOUT/ALL*
G04 Layer:  ROUTE KEEPIN/ALL*
G04 Layer:  REF DES/SILKSCREEN_TOP*
G04 Layer:  REF DES/SILKSCREEN_BOTTOM*
G04 Layer:  PIN/BOTTOM*
G04 Layer:  PIN/TOP*
G04 Layer:  PACKAGE KEEPOUT/ALL*
G04 Layer:  PACKAGE KEEPIN/ALL*
G04 Layer:  PACKAGE GEOMETRY/PIN_NUMBER*
G04 Layer:  PACKAGE GEOMETRY/SILKSCREEN_TOP*
G04 Layer:  PACKAGE GEOMETRY/SILKSCREEN_BOTTOM*
G04 Layer:  PACKAGE GEOMETRY/SOLDERMASK_TOP*
G04 Layer:  PACKAGE GEOMETRY/SOLDERMASK_BOTTOM*
G04 Layer:  PACKAGE GEOMETRY/PASTEMASK_TOP*
G04 Layer:  PACKAGE GEOMETRY/PASTEMASK_BOTTOM*
G04 Layer:  ETCH/BOTTOM*
G04 Layer:  ETCH/TOP*
G04 Layer:  BOARD GEOMETRY/OUTLINE*
G04 Layer:  BOARD GEOMETRY/SILKSCREEN_TOP*
G04 Layer:  BOARD GEOMETRY/SILKSCREEN_BOTTOM*
G04 Layer:  BOARD GEOMETRY/SOLDERMASK_TOP*
G04 Layer:  BOARD GEOMETRY/SOLDERMASK_BOTTOM*
G04 Layer:  BOARD GEOMETRY/DESIGN_OUTLINE*
G04 *
G04 Offset:    (0.000 0.000)*
G04 Mirror:    No*
G04 Mode:      Positive*
G04 Rotation:  0*
G04 FullContactRelief:  No*
G04 UndefLineWidth:     0.000*
G04 ================== end FILE IDENTIFICATION RECORD ====================*
%FSLAX25Y25*MOMM*%
%IR0*IPPOS*OFA0.00000B0.00000*MIA0B0*SFA1.00000B1.00000*%
%ADD11C,1.524*%
%ADD12C,1.651*%
%ADD13R,1.524X1.524*%
%ADD10C,.635*%
%ADD14C,1.*%
%ADD15C,.5*%
%ADD17C,2.036*%
%ADD16C,2.164*%
G75*
%LPD*%
G75*
G36*
G01X754200Y500000D02*
Y754200D01*
X500000D01*
Y2636200D01*
G03Y2839800I0J101800D01*
G01Y2890200D01*
G03Y3093800I0J101800D01*
G01Y3144200D01*
G03X568200Y3170400I0J101864D01*
G01X821200D01*
X876900Y3114700D01*
Y2291200D01*
X1021200Y2146900D01*
X2344800D01*
G03Y2298100I68200J75600D01*
G01X1083800D01*
X1028100Y2353800D01*
Y3177300D01*
X883800Y3321600D01*
X568200D01*
G03X500000Y3347800I-68200J-75664D01*
G01Y3398200D01*
G03X568200Y3424400I0J101864D01*
G01X1816800D01*
X1980600Y3588200D01*
Y5302700D01*
X2007100Y5329200D01*
X2132900D01*
X2141700Y5320400D01*
X2243800D01*
G03Y5471600I68200J75600D01*
G01X2204300D01*
X2195500Y5480400D01*
X1944500D01*
X1829400Y5365300D01*
Y3650800D01*
X1754200Y3575600D01*
X568200D01*
G03X500000Y3601800I-68200J-75664D01*
G01Y4812400D01*
X1481800D01*
G03Y4963600I68200J75600D01*
G01X500000D01*
Y5285500D01*
G02X510000Y5295700I10190J11D01*
G03Y5499300I-2000J101800D01*
G02X500000Y5509500I190J10189D01*
G01Y6245800D01*
X754200D01*
Y6500000D01*
X9245800D01*
Y6245800D01*
X9500000D01*
Y3355800D01*
G03Y3152200I0J-101800D01*
G01Y3101800D01*
G03Y2898200I0J-101800D01*
G01Y754200D01*
X9245800D01*
Y500000D01*
X754200D01*
G37*
%LPC*%
G75*
G36*
G01X7391200Y2908300D02*
Y3060700D01*
G02X7416800Y3086300I25600J0D01*
G01X7569200D01*
G02X7594800Y3060700I0J-25600D01*
G01Y2908300D01*
G02X7569200Y2882700I-25600J0D01*
G01X7416800D01*
G02X7391200Y2908300I0J25600D01*
G37*
G36*
G01X6819700Y4622800D02*
Y4775200D01*
G02X6845300Y4800800I25600J0D01*
G01X6997700D01*
G02X7023300Y4775200I0J-25600D01*
G01Y4622800D01*
G02X6997700Y4597200I-25600J0D01*
G01X6845300D01*
G02X6819700Y4622800I0J25600D01*
G37*
G36*
G01X5867200Y4051300D02*
Y4203700D01*
G02X5892800Y4229300I25600J0D01*
G01X6045200D01*
G02X6070800Y4203700I0J-25600D01*
G01Y4051300D01*
G02X6045200Y4025700I-25600J0D01*
G01X5892800D01*
G02X5867200Y4051300I0J25600D01*
G37*
G36*
G01X4343200Y5575300D02*
Y5727700D01*
G02X4368800Y5753300I25600J0D01*
G01X4521200D01*
G02X4546800Y5727700I0J-25600D01*
G01Y5575300D01*
G02X4521200Y5549700I-25600J0D01*
G01X4368800D01*
G02X4343200Y5575300I0J25600D01*
G37*
G36*
G01X1448200Y5573800D02*
Y5726200D01*
G02X1473800Y5751800I25600J0D01*
G01X1626200D01*
G02X1651800Y5726200I0J-25600D01*
G01Y5573800D01*
G02X1626200Y5548200I-25600J0D01*
G01X1473800D01*
G02X1448200Y5573800I0J25600D01*
G37*
G36*
G01X4333000Y4432100D02*
X4349400D01*
G02Y4330900I95600J-50600D01*
G01X4291000D01*
X4203900Y4418000D01*
Y5114500D01*
X4283500Y5194100D01*
X4356700D01*
G02Y5092900I88300J-50600D01*
G01X4325500D01*
X4305100Y5072500D01*
Y4460000D01*
X4333000Y4432100D01*
G37*
G36*
G01X1685500Y5192600D02*
X1765100Y5113000D01*
Y4156500D01*
X1685500Y4076900D01*
X1619600D01*
G02Y4178100I-95600J50600D01*
G01X1643500D01*
X1663900Y4198500D01*
Y5071000D01*
X1643500Y5091400D01*
X1638400D01*
X1636900Y5089000D01*
G02X1638300Y5192600I-86908J52984D01*
G01X1685500D01*
G37*
G36*
G01X7179400Y4109800D02*
X7099800Y4030200D01*
X7010200D01*
Y3388600D01*
X6972100Y3350500D01*
Y3334100D01*
G02X6870900I-50600J-95600D01*
G01Y3392500D01*
X6909000Y3430600D01*
Y4039200D01*
G02X7058100Y4153300I50621J88319D01*
G03X7075100Y4148700I9834J2630D01*
G01X7078200Y4151800D01*
Y5048200D01*
X7033500Y5092900D01*
X7017100D01*
G02Y5194100I-95600J50600D01*
G01X7075500D01*
X7179400Y5090200D01*
Y4109800D01*
G37*
G36*
G01X5956100Y3450000D02*
Y3334100D01*
G02X5854900I-50600J-95600D01*
G01Y3408000D01*
X5711100Y3551800D01*
Y4639700D01*
X5821000Y4749600D01*
X5842600D01*
G02X5857600Y4628400I88300J-50600D01*
G03X5843000Y4628500I-7349J-7103D01*
G01X5812300Y4597700D01*
Y3593800D01*
X5956100Y3450000D01*
G37*
G36*
G01X2801500Y2781100D02*
X3086700D01*
G02Y2679900I88300J-50600D01*
G01X2759500D01*
X2679900Y2759500D01*
Y3167500D01*
X2659500Y3187900D01*
X2514800D01*
Y3162300D01*
G02X2489200Y3136700I-25600J0D01*
G01X2336800D01*
G02X2311200Y3162300I0J25600D01*
G01Y3314700D01*
G02X2336800Y3340300I25600J0D01*
G01X2489200D01*
G02X2514800Y3314700I0J-25600D01*
G01Y3289100D01*
X2701500D01*
X2781100Y3209500D01*
Y2801500D01*
X2801500Y2781100D01*
G37*
G36*
G01X8329700Y2545800D02*
X8458400Y2674500D01*
Y3396900D01*
G02X8559600I50600J95600D01*
G01Y2632500D01*
X8353000Y2425900D01*
X8343400D01*
X8341900Y2423500D01*
G02X8326100Y2549300I-86909J52977D01*
G01X8329700Y2545800D01*
G37*
G36*
G01X7251900Y3190000D02*
X7442400Y3380500D01*
Y3396900D01*
G02X7543600I50600J95600D01*
G01Y3338500D01*
X7353100Y3148000D01*
Y2801500D01*
X7373500Y2781100D01*
X7404700D01*
G02Y2679900I88300J-50600D01*
G01X7373500D01*
X7353100Y2659500D01*
Y1418000D01*
X7461100Y1309900D01*
X7464000Y1310700D01*
G02X7388800Y1235500I29000J-104200D01*
G01X7389600Y1238400D01*
X7251900Y1376000D01*
Y2701500D01*
X7280900Y2730500D01*
X7251900Y2759500D01*
Y3190000D01*
G37*
G36*
G01X2444400Y4178100D02*
G02Y4076900I95600J-50600D01*
G01X2201400D01*
X2109000Y4169300D01*
Y5124600D01*
X2177000Y5192600D01*
X2223700D01*
G02X2395600Y5200100I88322J-50606D01*
G03X2411200Y5198700I8385J5823D01*
G01X2515400Y5303000D01*
Y6104400D01*
G02X2616600I50600J95600D01*
G01Y5261000D01*
X2447000Y5091400D01*
X2400300D01*
G02X2228400Y5083900I-88322J50606D01*
G03X2212800Y5085300I-8385J-5823D01*
G01X2210200Y5082600D01*
Y4952400D01*
G03X2228700Y4946600I10181J69D01*
G02Y4829400I83300J-58600D01*
G03X2210200Y4823600I-8319J-5869D01*
G01Y4211300D01*
X2243400Y4178100D01*
X2444400D01*
G37*
G54D17*
X762000Y5397500D03*
X1550000Y5396000D03*
X2413000Y1714500D03*
Y1968500D03*
Y2476500D03*
Y2730500D03*
Y2984500D03*
X2312000Y5650000D03*
X3175000Y1714500D03*
Y1968500D03*
Y2222500D03*
Y2476500D03*
Y2984500D03*
Y3238500D03*
X4445000Y4889500D03*
Y5397500D03*
X5207000Y4889500D03*
Y5143500D03*
Y5397500D03*
Y5651500D03*
X7493000Y2222500D03*
Y2476500D03*
X8255000Y2222500D03*
Y2730500D03*
Y2984500D03*
G54D16*
X1143000Y4127500D03*
Y5143500D03*
X1550000Y6200000D03*
X3492500Y1714500D03*
Y1968500D03*
Y2730500D03*
Y2476500D03*
X3429000Y4381500D03*
X2984500Y5143500D03*
X4000500D03*
X4191000Y6032500D03*
X4508500Y1714500D03*
Y1968500D03*
Y2730500D03*
Y2476500D03*
X5715000Y1460500D03*
X5334000Y1968500D03*
X5715000Y2476500D03*
X5334000Y2984500D03*
X5207000Y6032500D03*
X6413500Y1460500D03*
Y2476500D03*
X5905500Y5143500D03*
X6921500Y1968500D03*
Y2984500D03*
X8509000Y1206500D03*
%LPD*%
G75*
G36*
G01X246000Y246000D02*
Y754000D01*
X754000D01*
Y246000D01*
X246000D01*
G37*
G36*
G01Y6246000D02*
Y6754000D01*
X754000D01*
Y6246000D01*
X246000D01*
G37*
G36*
G01X9246000Y246000D02*
Y754000D01*
X9754000D01*
Y246000D01*
X9246000D01*
G37*
G36*
G01Y6246000D02*
Y6754000D01*
X9754000D01*
Y6246000D01*
X9246000D01*
G37*
G54D10*
X500000Y500000D03*
D03*
Y6500000D03*
D03*
X9500000Y500000D03*
D03*
Y6500000D03*
D03*
G54D11*
X500000Y2738000D03*
D03*
Y2992000D03*
D03*
Y3246000D03*
D03*
Y3500000D03*
D03*
X762000Y5397500D03*
D03*
X508000D03*
D03*
X1550000Y4888000D03*
D03*
Y5142000D03*
D03*
Y5396000D03*
D03*
X2413000Y1714500D03*
D03*
Y1968500D03*
D03*
Y2222500D03*
D03*
Y2476500D03*
D03*
Y2730500D03*
D03*
Y2984500D03*
D03*
X2312000Y4888000D03*
D03*
Y5142000D03*
D03*
Y5396000D03*
D03*
Y5650000D03*
D03*
X3175000Y1714500D03*
D03*
Y1968500D03*
D03*
Y2222500D03*
D03*
Y2476500D03*
D03*
Y2730500D03*
D03*
Y2984500D03*
D03*
Y3238500D03*
D03*
X4445000Y4889500D03*
D03*
Y5143500D03*
D03*
Y5397500D03*
D03*
X5207000Y4889500D03*
D03*
Y5143500D03*
D03*
Y5397500D03*
D03*
Y5651500D03*
D03*
X5930900Y4699000D03*
D03*
X6959600Y4127500D03*
D03*
X7493000Y2222500D03*
D03*
Y2476500D03*
D03*
Y2730500D03*
D03*
X8255000Y2222500D03*
D03*
Y2476500D03*
D03*
Y2730500D03*
D03*
Y2984500D03*
D03*
X9500000Y3254000D03*
D03*
Y3000000D03*
D03*
G54D12*
X1143000Y4127500D03*
D03*
Y5143500D03*
D03*
X1524000Y4127500D03*
D03*
X1550000Y6200000D03*
D03*
X2540000Y4127500D03*
D03*
X2566000Y6200000D03*
D03*
X3492500Y1968500D03*
D03*
Y1714500D03*
D03*
Y2730500D03*
D03*
Y2476500D03*
D03*
X3429000Y4381500D03*
D03*
X2984500Y5143500D03*
D03*
X4000500D03*
D03*
X4191000Y6032500D03*
D03*
X4508500Y1968500D03*
D03*
Y1714500D03*
D03*
Y2730500D03*
D03*
Y2476500D03*
D03*
X4445000Y4381500D03*
D03*
X5334000Y1968500D03*
D03*
X5715000Y1460500D03*
D03*
Y2476500D03*
D03*
X5334000Y2984500D03*
D03*
X5207000Y6032500D03*
D03*
X6413500Y1460500D03*
D03*
Y2476500D03*
D03*
X5905500Y3238500D03*
D03*
Y5143500D03*
D03*
X6921500Y1968500D03*
D03*
Y3238500D03*
D03*
Y2984500D03*
D03*
Y5143500D03*
D03*
X7493000Y1206500D03*
D03*
Y3492500D03*
D03*
X8509000Y1206500D03*
D03*
Y3492500D03*
D03*
G54D13*
X1550000Y5650000D03*
D03*
X2413000Y3238500D03*
D03*
X4445000Y5651500D03*
D03*
X5969000Y4127500D03*
D03*
X6921500Y4699000D03*
D03*
X7493000Y2984500D03*
D03*
G54D14*
G01X500000Y2738000D02*
X348400D01*
X254000Y2832400D01*
Y4680900D01*
X461100Y4888000D01*
X1550000D01*
G01X2413000Y2222500D02*
X1052500D01*
X952500Y2322500D01*
Y3146000D01*
X852500Y3246000D01*
X500000D01*
G01Y2992000D02*
X627500D01*
G01X2312000Y5396000D02*
X2173000D01*
X2164200Y5404800D01*
X1975800D01*
X1905000Y5334000D01*
Y3619500D01*
X1785500Y3500000D01*
X500000D01*
G01X1143000Y5030200D02*
Y5143500D01*
G01D02*
Y5256800D01*
G01X1029700Y5143500D02*
X1143000D01*
G01D02*
X1256300D01*
G01X508000Y5290600D02*
Y5397500D01*
G01D02*
Y5504400D01*
G01X4445000Y4889500D02*
X4191000D01*
X4037900Y4736400D01*
X2249100D01*
X2097500Y4888000D01*
X1550000D01*
G01X2413000Y1861600D02*
Y1968500D01*
G01Y1607600D02*
Y1714500D01*
G01D02*
Y1821400D01*
G01X2306100Y1714500D02*
X2413000D01*
G01D02*
X2519900D01*
G01X2306100Y1968500D02*
X2413000D01*
G01D02*
X2519900D01*
G01X2413000Y2877600D02*
Y2984500D01*
G01X2306100D02*
X2413000D01*
G01D02*
X2519900D01*
G01X2413000Y2730500D02*
Y2837400D01*
G01X2306100Y2730500D02*
X2413000D01*
G01D02*
X2519900D01*
G01X4953000Y5425400D02*
Y6123000D01*
X4853000Y6223000D01*
X2894000D01*
X2794000Y6123000D01*
Y5461000D01*
X2729000Y5396000D01*
X2312000D01*
G01X3068100Y2222500D02*
X3175000D01*
G01D02*
X3281900D01*
G01X3429000Y4268200D02*
Y4381500D01*
G01D02*
Y4494800D01*
G01X3315700Y4381500D02*
X3429000D01*
G01D02*
X3542300D01*
G01X4953000Y5425400D02*
Y3846500D01*
X5053000Y3746500D01*
X7937500D01*
X8001000Y3683000D01*
Y2794000D01*
X8064500Y2730500D01*
X8255000D01*
G01X4445000Y4889500D02*
X4699000D01*
X4762500Y4826000D01*
Y3619500D01*
X4826000Y3556000D01*
X7175500D01*
X7239000Y3492500D01*
Y3338500D01*
X7339000Y3238500D01*
X7710500D01*
X7810500Y3138500D01*
Y2322500D01*
X7710500Y2222500D01*
X7493000D01*
G01X5207000Y5397500D02*
X5179100Y5425400D01*
X4953000D01*
G01X5969000Y4020600D02*
Y4127500D01*
G01D02*
Y4234400D01*
G01X5862100Y4127500D02*
X5969000D01*
G01D02*
X6075900D01*
G01X6921500Y1855200D02*
Y1968500D01*
G01D02*
Y2081800D01*
G01X6808200Y1968500D02*
X6921500D01*
G01D02*
X7034800D01*
G01X6921500Y4592100D02*
Y4699000D01*
G01D02*
Y4805900D01*
G01X6814600Y4699000D02*
X6921500D01*
G01D02*
X7028400D01*
G01X8509000Y1093200D02*
Y1206500D01*
G01D02*
Y1319800D01*
G01X8395700Y1206500D02*
X8509000D01*
G01D02*
X8622300D01*
G01X9500000Y3254000D02*
Y3360900D01*
G01X9393100Y3254000D02*
X9500000D01*
G54D15*
G01X762000Y5397500D02*
X1434500D01*
X1436000Y5396000D01*
X1550000D01*
G01X1524000Y4127500D02*
X1664500D01*
X1714500Y4177500D01*
Y5092000D01*
X1664500Y5142000D01*
X1550000D01*
G01X1143000Y4127500D02*
X1524000D01*
G01X1550000Y5396000D02*
X1551500Y5397500D01*
X1664500D01*
X1714500Y5447500D01*
Y6159500D01*
X1674000Y6200000D01*
X1550000D01*
G01X2550000Y200000D02*
X2350000D01*
Y600000D01*
X2550000D01*
G01X2470000Y406700D02*
X2350000D01*
G01X2750000Y600000D02*
Y200000D01*
X2950000D01*
G01X3350000D02*
X3150000D01*
Y600000D01*
X3350000D01*
G01X3270000Y406700D02*
X3150000D01*
G01X3760000Y566700D02*
X3730000Y586700D01*
X3695000Y600000D01*
X3655000D01*
X3610000Y580000D01*
X3575000Y546700D01*
X3550000Y506700D01*
X3530000Y440000D01*
X3525000Y380000D01*
X3535000Y320000D01*
X3550000Y280000D01*
X3580000Y240000D01*
X3615000Y213300D01*
X3650000Y200000D01*
X3685000D01*
X3720000Y213300D01*
X3750000Y233300D01*
X3775000Y260000D01*
G01X4050000Y600000D02*
Y200000D01*
G01X3935000Y600000D02*
X4165000D01*
G01X4350000Y200000D02*
Y600000D01*
X4475000D01*
X4515000Y580000D01*
X4540000Y553300D01*
X4550000Y500000D01*
X4540000Y446700D01*
X4510000Y413300D01*
X4475000Y393300D01*
X4350000D01*
G01X4475000D02*
X4550000Y200000D01*
G01X4850000D02*
X4810000Y206700D01*
X4775000Y233300D01*
X4745000Y273300D01*
X4725000Y320000D01*
X4715000Y373300D01*
Y426700D01*
X4725000Y480000D01*
X4745000Y526700D01*
X4775000Y566700D01*
X4810000Y593300D01*
X4850000Y600000D01*
X4890000Y593300D01*
X4925000Y566700D01*
X4955000Y526700D01*
X4975000Y480000D01*
X4985000Y426700D01*
Y373300D01*
X4975000Y320000D01*
X4955000Y273300D01*
X4925000Y233300D01*
X4890000Y206700D01*
X4850000Y200000D01*
G01X5135000D02*
Y600000D01*
X5365000Y200000D01*
Y600000D01*
G01X5590000D02*
X5710000D01*
G01X5650000D02*
Y200000D01*
G01X5590000D02*
X5710000D01*
G01X6160000Y566700D02*
X6130000Y586700D01*
X6095000Y600000D01*
X6055000D01*
X6010000Y580000D01*
X5975000Y546700D01*
X5950000Y506700D01*
X5930000Y440000D01*
X5925000Y380000D01*
X5935000Y320000D01*
X5950000Y280000D01*
X5980000Y240000D01*
X6015000Y213300D01*
X6050000Y200000D01*
X6085000D01*
X6120000Y213300D01*
X6150000Y233300D01*
X6175000Y260000D01*
G01X6960000Y566700D02*
X6930000Y586700D01*
X6895000Y600000D01*
X6855000D01*
X6810000Y580000D01*
X6775000Y546700D01*
X6750000Y506700D01*
X6730000Y440000D01*
X6725000Y380000D01*
X6735000Y320000D01*
X6750000Y280000D01*
X6780000Y240000D01*
X6815000Y213300D01*
X6850000Y200000D01*
X6885000D01*
X6920000Y213300D01*
X6950000Y233300D01*
X6975000Y260000D01*
G01X7125000Y200000D02*
X7250000Y600000D01*
X7375000Y200000D01*
G01X7330000Y340000D02*
X7170000D01*
G01X7540000Y200000D02*
Y600000D01*
X7640000D01*
X7680000Y580000D01*
X7710000Y553300D01*
X7735000Y513300D01*
X7755000Y466700D01*
X7760000Y400000D01*
X7755000Y333300D01*
X7735000Y286700D01*
X7710000Y246700D01*
X7680000Y220000D01*
X7640000Y200000D01*
X7540000D01*
G01X3175000Y2730500D02*
X2780500D01*
X2730500Y2780500D01*
Y3188500D01*
X2680500Y3238500D01*
X2413000D01*
G01X2540000Y4127500D02*
X2222400D01*
X2159600Y4190300D01*
Y5103600D01*
X2198000Y5142000D01*
X2312000D01*
G01X2566000Y6200000D02*
Y5282000D01*
X2426000Y5142000D01*
X2312000D01*
G01D02*
X2850000D01*
X2851500Y5143500D01*
X2984500D01*
G01X3492500Y1714500D02*
X3175000D01*
G01X3492500Y2476500D02*
X3175000D01*
G01X3492500Y1968500D02*
X3175000D01*
G01X3492500Y2730500D02*
X3175000D01*
G01Y3238500D02*
X5905500D01*
G01X2790000Y6400000D02*
Y6800000D01*
X2890000D01*
X2930000Y6780000D01*
X2960000Y6753300D01*
X2985000Y6713300D01*
X3005000Y6666700D01*
X3010000Y6600000D01*
X3005000Y6533300D01*
X2985000Y6486700D01*
X2960000Y6446700D01*
X2930000Y6420000D01*
X2890000Y6400000D01*
X2790000D01*
G01X3175000D02*
X3300000Y6800000D01*
X3425000Y6400000D01*
G01X3380000Y6540000D02*
X3220000D01*
G01X4210000Y6766700D02*
X4180000Y6786700D01*
X4145000Y6800000D01*
X4105000D01*
X4060000Y6780000D01*
X4025000Y6746700D01*
X4000000Y6706700D01*
X3980000Y6640000D01*
X3975000Y6580000D01*
X3985000Y6520000D01*
X4000000Y6480000D01*
X4030000Y6440000D01*
X4065000Y6413300D01*
X4100000Y6400000D01*
X4135000D01*
X4170000Y6413300D01*
X4200000Y6433300D01*
X4225000Y6460000D01*
G01X4500000Y6400000D02*
X4460000Y6406700D01*
X4425000Y6433300D01*
X4395000Y6473300D01*
X4375000Y6520000D01*
X4365000Y6573300D01*
Y6626700D01*
X4375000Y6680000D01*
X4395000Y6726700D01*
X4425000Y6766700D01*
X4460000Y6793300D01*
X4500000Y6800000D01*
X4540000Y6793300D01*
X4575000Y6766700D01*
X4605000Y6726700D01*
X4625000Y6680000D01*
X4635000Y6626700D01*
Y6573300D01*
X4625000Y6520000D01*
X4605000Y6473300D01*
X4575000Y6433300D01*
X4540000Y6406700D01*
X4500000Y6400000D01*
G01X4785000D02*
Y6800000D01*
X5015000Y6400000D01*
Y6800000D01*
G01X5175000D02*
X5300000Y6400000D01*
X5425000Y6800000D01*
G01X5800000Y6400000D02*
X5600000D01*
Y6800000D01*
X5800000D01*
G01X5720000Y6606700D02*
X5600000D01*
G01X6000000Y6400000D02*
Y6800000D01*
X6125000D01*
X6165000Y6780000D01*
X6190000Y6753300D01*
X6200000Y6700000D01*
X6190000Y6646700D01*
X6160000Y6613300D01*
X6125000Y6593300D01*
X6000000D01*
G01X6125000D02*
X6200000Y6400000D01*
G01X6500000Y6800000D02*
Y6400000D01*
G01X6385000Y6800000D02*
X6615000D01*
G01X6900000Y6400000D02*
X6860000Y6406700D01*
X6825000Y6433300D01*
X6795000Y6473300D01*
X6775000Y6520000D01*
X6765000Y6573300D01*
Y6626700D01*
X6775000Y6680000D01*
X6795000Y6726700D01*
X6825000Y6766700D01*
X6860000Y6793300D01*
X6900000Y6800000D01*
X6940000Y6793300D01*
X6975000Y6766700D01*
X7005000Y6726700D01*
X7025000Y6680000D01*
X7035000Y6626700D01*
Y6573300D01*
X7025000Y6520000D01*
X7005000Y6473300D01*
X6975000Y6433300D01*
X6940000Y6406700D01*
X6900000Y6400000D01*
G01X7200000D02*
Y6800000D01*
X7325000D01*
X7365000Y6780000D01*
X7390000Y6753300D01*
X7400000Y6700000D01*
X7390000Y6646700D01*
X7360000Y6613300D01*
X7325000Y6593300D01*
X7200000D01*
G01X7325000D02*
X7400000Y6400000D01*
G01X4445000Y5397500D02*
X4007600D01*
X4000500Y5390400D01*
G01D02*
Y5143500D01*
G01X4191000Y6032500D02*
X4050500D01*
X4000500Y5982500D01*
Y5390400D01*
G01X5715000Y1460500D02*
X4572000D01*
X4508500Y1524000D01*
Y1714500D01*
G01Y1968500D02*
X5334000D01*
G01X4508500Y2476500D02*
X5715000D01*
G01X5334000Y2984500D02*
X4572000D01*
X4508500Y2921000D01*
Y2730500D01*
G01X4445000Y4381500D02*
X4312000D01*
X4254500Y4439000D01*
Y5093500D01*
X4304500Y5143500D01*
X4445000D01*
G01X6413500Y2476500D02*
Y2032000D01*
X6350000Y1968500D01*
X5334000D01*
G01Y2984500D02*
X6921500D01*
G01X5207000Y5143500D02*
X5334000D01*
G01D02*
X5397500Y5207000D01*
Y5969000D01*
X5334000Y6032500D01*
X5207000D01*
G01X5905500Y5143500D02*
X5334000D01*
G01X5715000Y1460500D02*
X6413500D01*
G01X5715000Y2476500D02*
X5842000D01*
X6032500Y2667000D01*
X7112000D01*
X7302500Y2476500D01*
X7493000D01*
G01X5905500Y3238500D02*
Y3429000D01*
X5761700Y3572800D01*
Y4618700D01*
X5842000Y4699000D01*
X5930900D01*
G01X6959600Y4127500D02*
Y3409600D01*
X6921500Y3371500D01*
Y3238500D01*
G01X6959600Y4127500D02*
X7006300Y4080800D01*
X7078800D01*
X7128800Y4130800D01*
Y5069200D01*
X7054500Y5143500D01*
X6921500D01*
G01X7493000Y1206500D02*
X7302500Y1397000D01*
Y2680500D01*
X7352500Y2730500D01*
G01X7493000D02*
X7352500D01*
G01D02*
X7302500Y2780500D01*
Y3169000D01*
X7493000Y3359500D01*
Y3492500D01*
G01X8509000D02*
Y2653500D01*
X8332000Y2476500D01*
X8255000D01*
G01X9500000Y3000000D02*
X9321000D01*
X9271000Y3050000D01*
Y3453600D01*
X9232100Y3492500D01*
X8509000D01*
M02*
