G04 ================== begin FILE IDENTIFICATION RECORD ==================*
G04 Layout Name:  C:/Users/user/Desktop/work/DA_CONVERTOR/allegro/DA_CONVERTOR2.brd*
G04 Film Name:    skt*
G04 File Format:  Gerber RS274X*
G04 File Origin:  Cadence Allegro 17.2-P019*
G04 Origin Date:  Wed Jul 31 16:17:44 2019*
G04 *
G04 Layer:  REF DES/SILKSCREEN_TOP*
G04 Layer:  PACKAGE GEOMETRY/SILKSCREEN_TOP*
G04 Layer:  BOARD GEOMETRY/SILKSCREEN_TOP*
G04 *
G04 Offset:    (0.000 0.000)*
G04 Mirror:    No*
G04 Mode:      Positive*
G04 Rotation:  0*
G04 FullContactRelief:  No*
G04 UndefLineWidth:     0.200*
G04 ================== end FILE IDENTIFICATION RECORD ====================*
%FSLAX25Y25*MOMM*%
%IR0*IPPOS*OFA0.00000B0.00000*MIA0B0*SFA1.00000B1.00000*%
%ADD10C,.5*%
%ADD11C,.2*%
G75*
%LPD*%
G75*
G54D10*
G01X2550000Y200000D02*
X2350000D01*
Y600000D01*
X2550000D01*
G01X2470000Y406700D02*
X2350000D01*
G01X2750000Y600000D02*
Y200000D01*
X2950000D01*
G01X3350000D02*
X3150000D01*
Y600000D01*
X3350000D01*
G01X3270000Y406700D02*
X3150000D01*
G01X3760000Y566700D02*
X3730000Y586700D01*
X3695000Y600000D01*
X3655000D01*
X3610000Y580000D01*
X3575000Y546700D01*
X3550000Y506700D01*
X3530000Y440000D01*
X3525000Y380000D01*
X3535000Y320000D01*
X3550000Y280000D01*
X3580000Y240000D01*
X3615000Y213300D01*
X3650000Y200000D01*
X3685000D01*
X3720000Y213300D01*
X3750000Y233300D01*
X3775000Y260000D01*
G01X4050000Y600000D02*
Y200000D01*
G01X3935000Y600000D02*
X4165000D01*
G01X4350000Y200000D02*
Y600000D01*
X4475000D01*
X4515000Y580000D01*
X4540000Y553300D01*
X4550000Y500000D01*
X4540000Y446700D01*
X4510000Y413300D01*
X4475000Y393300D01*
X4350000D01*
G01X4475000D02*
X4550000Y200000D01*
G01X4850000D02*
X4810000Y206700D01*
X4775000Y233300D01*
X4745000Y273300D01*
X4725000Y320000D01*
X4715000Y373300D01*
Y426700D01*
X4725000Y480000D01*
X4745000Y526700D01*
X4775000Y566700D01*
X4810000Y593300D01*
X4850000Y600000D01*
X4890000Y593300D01*
X4925000Y566700D01*
X4955000Y526700D01*
X4975000Y480000D01*
X4985000Y426700D01*
Y373300D01*
X4975000Y320000D01*
X4955000Y273300D01*
X4925000Y233300D01*
X4890000Y206700D01*
X4850000Y200000D01*
G01X5135000D02*
Y600000D01*
X5365000Y200000D01*
Y600000D01*
G01X5590000D02*
X5710000D01*
G01X5650000D02*
Y200000D01*
G01X5590000D02*
X5710000D01*
G01X6160000Y566700D02*
X6130000Y586700D01*
X6095000Y600000D01*
X6055000D01*
X6010000Y580000D01*
X5975000Y546700D01*
X5950000Y506700D01*
X5930000Y440000D01*
X5925000Y380000D01*
X5935000Y320000D01*
X5950000Y280000D01*
X5980000Y240000D01*
X6015000Y213300D01*
X6050000Y200000D01*
X6085000D01*
X6120000Y213300D01*
X6150000Y233300D01*
X6175000Y260000D01*
G01X6960000Y566700D02*
X6930000Y586700D01*
X6895000Y600000D01*
X6855000D01*
X6810000Y580000D01*
X6775000Y546700D01*
X6750000Y506700D01*
X6730000Y440000D01*
X6725000Y380000D01*
X6735000Y320000D01*
X6750000Y280000D01*
X6780000Y240000D01*
X6815000Y213300D01*
X6850000Y200000D01*
X6885000D01*
X6920000Y213300D01*
X6950000Y233300D01*
X6975000Y260000D01*
G01X7125000Y200000D02*
X7250000Y600000D01*
X7375000Y200000D01*
G01X7330000Y340000D02*
X7170000D01*
G01X7540000Y200000D02*
Y600000D01*
X7640000D01*
X7680000Y580000D01*
X7710000Y553300D01*
X7735000Y513300D01*
X7755000Y466700D01*
X7760000Y400000D01*
X7755000Y333300D01*
X7735000Y286700D01*
X7710000Y246700D01*
X7680000Y220000D01*
X7640000Y200000D01*
X7540000D01*
G01X2790000Y6400000D02*
Y6800000D01*
X2890000D01*
X2930000Y6780000D01*
X2960000Y6753300D01*
X2985000Y6713300D01*
X3005000Y6666700D01*
X3010000Y6600000D01*
X3005000Y6533300D01*
X2985000Y6486700D01*
X2960000Y6446700D01*
X2930000Y6420000D01*
X2890000Y6400000D01*
X2790000D01*
G01X3175000D02*
X3300000Y6800000D01*
X3425000Y6400000D01*
G01X3380000Y6540000D02*
X3220000D01*
G01X4210000Y6766700D02*
X4180000Y6786700D01*
X4145000Y6800000D01*
X4105000D01*
X4060000Y6780000D01*
X4025000Y6746700D01*
X4000000Y6706700D01*
X3980000Y6640000D01*
X3975000Y6580000D01*
X3985000Y6520000D01*
X4000000Y6480000D01*
X4030000Y6440000D01*
X4065000Y6413300D01*
X4100000Y6400000D01*
X4135000D01*
X4170000Y6413300D01*
X4200000Y6433300D01*
X4225000Y6460000D01*
G01X4500000Y6400000D02*
X4460000Y6406700D01*
X4425000Y6433300D01*
X4395000Y6473300D01*
X4375000Y6520000D01*
X4365000Y6573300D01*
Y6626700D01*
X4375000Y6680000D01*
X4395000Y6726700D01*
X4425000Y6766700D01*
X4460000Y6793300D01*
X4500000Y6800000D01*
X4540000Y6793300D01*
X4575000Y6766700D01*
X4605000Y6726700D01*
X4625000Y6680000D01*
X4635000Y6626700D01*
Y6573300D01*
X4625000Y6520000D01*
X4605000Y6473300D01*
X4575000Y6433300D01*
X4540000Y6406700D01*
X4500000Y6400000D01*
G01X4785000D02*
Y6800000D01*
X5015000Y6400000D01*
Y6800000D01*
G01X5175000D02*
X5300000Y6400000D01*
X5425000Y6800000D01*
G01X5800000Y6400000D02*
X5600000D01*
Y6800000D01*
X5800000D01*
G01X5720000Y6606700D02*
X5600000D01*
G01X6000000Y6400000D02*
Y6800000D01*
X6125000D01*
X6165000Y6780000D01*
X6190000Y6753300D01*
X6200000Y6700000D01*
X6190000Y6646700D01*
X6160000Y6613300D01*
X6125000Y6593300D01*
X6000000D01*
G01X6125000D02*
X6200000Y6400000D01*
G01X6500000Y6800000D02*
Y6400000D01*
G01X6385000Y6800000D02*
X6615000D01*
G01X6900000Y6400000D02*
X6860000Y6406700D01*
X6825000Y6433300D01*
X6795000Y6473300D01*
X6775000Y6520000D01*
X6765000Y6573300D01*
Y6626700D01*
X6775000Y6680000D01*
X6795000Y6726700D01*
X6825000Y6766700D01*
X6860000Y6793300D01*
X6900000Y6800000D01*
X6940000Y6793300D01*
X6975000Y6766700D01*
X7005000Y6726700D01*
X7025000Y6680000D01*
X7035000Y6626700D01*
Y6573300D01*
X7025000Y6520000D01*
X7005000Y6473300D01*
X6975000Y6433300D01*
X6940000Y6406700D01*
X6900000Y6400000D01*
G01X7200000D02*
Y6800000D01*
X7325000D01*
X7365000Y6780000D01*
X7390000Y6753300D01*
X7400000Y6700000D01*
X7390000Y6646700D01*
X7360000Y6613300D01*
X7325000Y6593300D01*
X7200000D01*
G01X7325000D02*
X7400000Y6400000D01*
G54D11*
G01X373000Y3627000D02*
X627000D01*
Y2611000D01*
X373000D01*
Y3627000D01*
G01X673200Y3576700D02*
X665400Y3571800D01*
X660100Y3566000D01*
X657500Y3559100D01*
X660100Y3551400D01*
X665400Y3545500D01*
X673200Y3539700D01*
X683700Y3537700D01*
X736200D01*
G01X657500Y3478500D02*
X736200D01*
X720500Y3490200D01*
G01X657500D02*
Y3466800D01*
G01X830100Y4635500D02*
Y4714200D01*
X854500D01*
X862300Y4710300D01*
X867100Y4705000D01*
X869100Y4694500D01*
X867100Y4684000D01*
X861300Y4677500D01*
X854500Y4673500D01*
X830100D01*
G01X854500D02*
X869100Y4635500D01*
G01X928300D02*
Y4714200D01*
X916600Y4698500D01*
G01Y4635500D02*
X940000D01*
G01X1016000Y4279900D02*
Y4991100D01*
X1270000D01*
Y4279900D01*
X1016000D01*
G01X889000Y5397500D02*
G03I-254000J0D01*
G01X617000Y5787100D02*
X611200Y5791100D01*
X604400Y5793700D01*
X596600D01*
X587800Y5789800D01*
X581000Y5783200D01*
X576100Y5775300D01*
X572200Y5762200D01*
X571300Y5750400D01*
X573200Y5738600D01*
X576100Y5730700D01*
X582000Y5722900D01*
X588800Y5717600D01*
X595600Y5715000D01*
X602400D01*
X609200Y5717600D01*
X615100Y5721600D01*
X619900Y5726800D01*
G01X674300Y5715000D02*
Y5793700D01*
X662600Y5778000D01*
G01Y5715000D02*
X686000D01*
G01X1655600Y3873500D02*
Y3952200D01*
X1680000D01*
X1687800Y3948300D01*
X1692600Y3943000D01*
X1694600Y3932500D01*
X1692600Y3922000D01*
X1686800Y3915500D01*
X1680000Y3911500D01*
X1655600D01*
G01X1680000D02*
X1694600Y3873500D01*
G01X1735300Y3939100D02*
X1741100Y3947000D01*
X1748000Y3950900D01*
X1755700Y3952200D01*
X1765500Y3949600D01*
X1772300Y3943000D01*
X1774200Y3935100D01*
X1773300Y3927300D01*
X1769400Y3920700D01*
X1749900Y3907600D01*
X1741100Y3898400D01*
X1735300Y3885300D01*
X1733400Y3873500D01*
X1774200D01*
G01X2387600Y4000500D02*
X1676400D01*
Y4254500D01*
X2387600D01*
Y4000500D01*
G01X1651600Y5777000D02*
X1804000D01*
X1867500Y5713500D01*
X1994500D01*
X2058000Y5777000D01*
X2210400D01*
Y4761000D01*
X1651600D01*
Y5777000D01*
G01X1846100Y5969000D02*
Y6047700D01*
X1870500D01*
X1878300Y6043800D01*
X1883100Y6038500D01*
X1885100Y6028000D01*
X1883100Y6017500D01*
X1877300Y6011000D01*
X1870500Y6007000D01*
X1846100D01*
G01X1870500D02*
X1885100Y5969000D01*
G01X1922900Y5984700D02*
X1928700Y5975600D01*
X1936500Y5970300D01*
X1945300Y5969000D01*
X1953100Y5970300D01*
X1960800Y5976900D01*
X1965700Y5984700D01*
X1966700Y5992600D01*
X1964700Y6001800D01*
X1957900Y6008300D01*
X1951100Y6011000D01*
X1942400D01*
G01X1951100D02*
X1957000Y6014900D01*
X1961800Y6021500D01*
X1963800Y6029300D01*
X1961800Y6037200D01*
X1957000Y6043800D01*
X1948200Y6047700D01*
X1939400Y6046400D01*
X1930700Y6041100D01*
G01X1702400Y6327000D02*
X2413600D01*
Y6073000D01*
X1702400D01*
Y6327000D01*
G01X2514600Y3429000D02*
Y1524000D01*
X3073400D01*
Y3429000D01*
X2921000D01*
X2857500Y3365500D01*
X2730500D01*
X2667000Y3429000D01*
X2514600D01*
G01X2225200Y5920700D02*
Y5864300D01*
X2229100Y5852500D01*
X2236900Y5844600D01*
X2246600Y5842000D01*
X2256300Y5844600D01*
X2264100Y5852500D01*
X2268000Y5864300D01*
Y5920700D01*
G01X2306800Y5907600D02*
X2312600Y5915500D01*
X2319500Y5919400D01*
X2327200Y5920700D01*
X2337000Y5918100D01*
X2343800Y5911500D01*
X2345700Y5903600D01*
X2344800Y5895800D01*
X2340900Y5889200D01*
X2321400Y5876100D01*
X2312600Y5866900D01*
X2306800Y5853800D01*
X2304900Y5842000D01*
X2345700D01*
G01X3241200Y3444200D02*
Y3387800D01*
X3245100Y3376000D01*
X3252900Y3368100D01*
X3262600Y3365500D01*
X3272300Y3368100D01*
X3280100Y3376000D01*
X3284000Y3387800D01*
Y3444200D01*
G01X3341300Y3365500D02*
Y3444200D01*
X3329600Y3428500D01*
G01Y3365500D02*
X3353000D01*
G01X3243100Y5334000D02*
Y5412700D01*
X3267500D01*
X3275300Y5408800D01*
X3280100Y5403500D01*
X3282100Y5393000D01*
X3280100Y5382500D01*
X3274300Y5376000D01*
X3267500Y5372000D01*
X3243100D01*
G01X3267500D02*
X3282100Y5334000D01*
G01X3353000D02*
Y5412700D01*
X3317000Y5356300D01*
X3365600D01*
G01X3136900Y5270500D02*
X3848100D01*
Y5016500D01*
X3136900D01*
Y5270500D01*
G01X3644900Y2095500D02*
X4356100D01*
Y1841500D01*
X3644900D01*
Y2095500D01*
G01Y1841500D02*
X4356100D01*
Y1587500D01*
X3644900D01*
Y1841500D01*
G01Y2857500D02*
X4356100D01*
Y2603500D01*
X3644900D01*
Y2857500D01*
G01Y2603500D02*
X4356100D01*
Y2349500D01*
X3644900D01*
Y2603500D01*
G01X3687600Y4572000D02*
Y4650700D01*
X3712000D01*
X3719800Y4646800D01*
X3724600Y4641500D01*
X3726600Y4631000D01*
X3724600Y4620500D01*
X3718800Y4614000D01*
X3712000Y4610000D01*
X3687600D01*
G01X3712000D02*
X3726600Y4572000D01*
G01X3764400Y4583800D02*
X3770200Y4577200D01*
X3777000Y4573300D01*
X3785800Y4572000D01*
X3794600Y4574600D01*
X3801400Y4579900D01*
X3806200Y4589100D01*
X3807200Y4599500D01*
X3805300Y4610000D01*
X3800400Y4616600D01*
X3793600Y4621800D01*
X3786800Y4623200D01*
X3780000Y4621800D01*
X3771200Y4616600D01*
X3774100Y4650700D01*
X3800400D01*
G01X3581400Y4508500D02*
X4292600D01*
Y4254500D01*
X3581400D01*
Y4508500D01*
G01X4664300Y1651000D02*
Y1729700D01*
X4688700D01*
X4696500Y1725800D01*
X4701300Y1720500D01*
X4703300Y1710000D01*
X4701300Y1699500D01*
X4695500Y1693000D01*
X4688700Y1689000D01*
X4664300D01*
G01X4688700D02*
X4703300Y1651000D01*
G01X4762500D02*
Y1729700D01*
X4750800Y1714000D01*
G01Y1651000D02*
X4774200D01*
G01X4841200Y1729700D02*
X4833400Y1727100D01*
X4827600Y1720500D01*
X4823700Y1712600D01*
X4820800Y1702200D01*
X4819800Y1690300D01*
X4820800Y1678500D01*
X4823700Y1668100D01*
X4827600Y1660200D01*
X4833400Y1653600D01*
X4841200Y1651000D01*
X4849000Y1653600D01*
X4854800Y1660200D01*
X4858700Y1668100D01*
X4861600Y1678500D01*
X4862600Y1690300D01*
X4861600Y1702200D01*
X4858700Y1712600D01*
X4854800Y1720500D01*
X4849000Y1727100D01*
X4841200Y1729700D01*
G01X4664300Y2032000D02*
Y2110700D01*
X4688700D01*
X4696500Y2106800D01*
X4701300Y2101500D01*
X4703300Y2091000D01*
X4701300Y2080500D01*
X4695500Y2074000D01*
X4688700Y2070000D01*
X4664300D01*
G01X4688700D02*
X4703300Y2032000D01*
G01X4762500D02*
Y2110700D01*
X4750800Y2095000D01*
G01Y2032000D02*
X4774200D01*
G01X4841200D02*
Y2110700D01*
X4829500Y2095000D01*
G01Y2032000D02*
X4852900D01*
G01X4703600Y2413000D02*
Y2491700D01*
X4728000D01*
X4735800Y2487800D01*
X4740600Y2482500D01*
X4742600Y2472000D01*
X4740600Y2461500D01*
X4734800Y2455000D01*
X4728000Y2451000D01*
X4703600D01*
G01X4728000D02*
X4742600Y2413000D01*
G01X4785300Y2422200D02*
X4792100Y2415600D01*
X4799900Y2413000D01*
X4807600Y2415600D01*
X4814500Y2423500D01*
X4819300Y2435300D01*
X4821300Y2447100D01*
Y2461500D01*
X4819300Y2473300D01*
X4814500Y2483800D01*
X4808600Y2489100D01*
X4801800Y2491700D01*
X4794000Y2489100D01*
X4788200Y2483800D01*
X4784300Y2476000D01*
X4782300Y2465500D01*
X4784300Y2456300D01*
X4789100Y2447100D01*
X4795000Y2441900D01*
X4801800Y2440500D01*
X4809600Y2443200D01*
X4815400Y2449700D01*
X4821300Y2461500D01*
G01X4664300Y2794000D02*
Y2872700D01*
X4688700D01*
X4696500Y2868800D01*
X4701300Y2863500D01*
X4703300Y2853000D01*
X4701300Y2842500D01*
X4695500Y2836000D01*
X4688700Y2832000D01*
X4664300D01*
G01X4688700D02*
X4703300Y2794000D01*
G01X4762500D02*
Y2872700D01*
X4750800Y2857000D01*
G01Y2794000D02*
X4774200D01*
G01X4822700Y2859600D02*
X4828500Y2867500D01*
X4835400Y2871400D01*
X4843100Y2872700D01*
X4852900Y2870100D01*
X4859700Y2863500D01*
X4861600Y2855600D01*
X4860700Y2847800D01*
X4856800Y2841200D01*
X4837300Y2828100D01*
X4828500Y2818900D01*
X4822700Y2805800D01*
X4820800Y2794000D01*
X4861600D01*
G01X4546600Y5778500D02*
X4699000D01*
X4762500Y5715000D01*
X4889500D01*
X4953000Y5778500D01*
X5105400D01*
Y4762500D01*
X4546600D01*
Y5778500D01*
G01X4894100Y6223000D02*
Y6301700D01*
X4918500D01*
X4926300Y6297800D01*
X4931100Y6292500D01*
X4933100Y6282000D01*
X4931100Y6271500D01*
X4925300Y6265000D01*
X4918500Y6261000D01*
X4894100D01*
G01X4918500D02*
X4933100Y6223000D01*
G01X4973800Y6255800D02*
X4980600Y6265000D01*
X4986500Y6270200D01*
X4994200Y6272800D01*
X5001100Y6270200D01*
X5005900Y6265000D01*
X5009800Y6257100D01*
X5010800Y6247900D01*
X5009800Y6240100D01*
X5005900Y6232200D01*
X5000100Y6225600D01*
X4993300Y6223000D01*
X4985500Y6225600D01*
X4978700Y6233500D01*
X4974800Y6245300D01*
X4973800Y6258400D01*
X4975800Y6275500D01*
X4978700Y6284600D01*
X4983500Y6293800D01*
X4990400Y6300400D01*
X4997200Y6301700D01*
X5004000Y6299100D01*
X5008800Y6292500D01*
G01X4343400Y6159500D02*
X5054600D01*
Y5905500D01*
X4343400D01*
Y6159500D01*
G01X5588000Y1612900D02*
Y2324100D01*
X5842000D01*
Y1612900D01*
X5588000D01*
G01X5461000Y2832100D02*
Y2120900D01*
X5207000D01*
Y2832100D01*
X5461000D01*
G01X5489800Y2857500D02*
Y2936200D01*
X5514200D01*
X5522000Y2932300D01*
X5526800Y2927000D01*
X5528800Y2916500D01*
X5526800Y2906000D01*
X5521000Y2899500D01*
X5514200Y2895500D01*
X5489800D01*
G01X5514200D02*
X5528800Y2857500D01*
G01X5569500Y2923100D02*
X5575300Y2931000D01*
X5582200Y2934900D01*
X5589900Y2936200D01*
X5599700Y2933600D01*
X5606500Y2927000D01*
X5608400Y2919100D01*
X5607500Y2911300D01*
X5603600Y2904700D01*
X5584100Y2891600D01*
X5575300Y2882400D01*
X5569500Y2869300D01*
X5567600Y2857500D01*
X5608400D01*
G01X5666700Y2936200D02*
X5658900Y2933600D01*
X5653100Y2927000D01*
X5649200Y2919100D01*
X5646300Y2908700D01*
X5645300Y2896800D01*
X5646300Y2885000D01*
X5649200Y2874600D01*
X5653100Y2866700D01*
X5658900Y2860100D01*
X5666700Y2857500D01*
X5674500Y2860100D01*
X5680300Y2866700D01*
X5684200Y2874600D01*
X5687100Y2885000D01*
X5688100Y2896800D01*
X5687100Y2908700D01*
X5684200Y2919100D01*
X5680300Y2927000D01*
X5674500Y2933600D01*
X5666700Y2936200D01*
G01X5390000Y5585400D02*
Y5529000D01*
X5393900Y5517200D01*
X5401700Y5509300D01*
X5411400Y5506700D01*
X5421100Y5509300D01*
X5428900Y5517200D01*
X5432800Y5529000D01*
Y5585400D01*
G01X5468700Y5522400D02*
X5474500Y5513300D01*
X5482300Y5508000D01*
X5491100Y5506700D01*
X5498900Y5508000D01*
X5506600Y5514600D01*
X5511500Y5522400D01*
X5512500Y5530300D01*
X5510500Y5539500D01*
X5503700Y5546000D01*
X5496900Y5548700D01*
X5488200D01*
G01X5496900D02*
X5502800Y5552600D01*
X5507600Y5559200D01*
X5509600Y5567000D01*
X5507600Y5574900D01*
X5502800Y5581500D01*
X5494000Y5585400D01*
X5485200Y5584100D01*
X5476500Y5578800D01*
G01X6540500Y2324100D02*
Y1612900D01*
X6286500D01*
Y2324100D01*
X6540500D01*
G01X5870800Y2349500D02*
Y2428200D01*
X5895200D01*
X5903000Y2424300D01*
X5907800Y2419000D01*
X5909800Y2408500D01*
X5907800Y2398000D01*
X5902000Y2391500D01*
X5895200Y2387500D01*
X5870800D01*
G01X5895200D02*
X5909800Y2349500D01*
G01X5969000D02*
Y2428200D01*
X5957300Y2412500D01*
G01Y2349500D02*
X5980700D01*
G01X6026300Y2365200D02*
X6032100Y2356100D01*
X6039900Y2350800D01*
X6048700Y2349500D01*
X6056500Y2350800D01*
X6064200Y2357400D01*
X6069100Y2365200D01*
X6070100Y2373100D01*
X6068100Y2382300D01*
X6061300Y2388800D01*
X6054500Y2391500D01*
X6045800D01*
G01X6054500D02*
X6060400Y2395400D01*
X6065200Y2402000D01*
X6067200Y2409800D01*
X6065200Y2417700D01*
X6060400Y2424300D01*
X6051600Y2428200D01*
X6042800Y2426900D01*
X6034100Y2421600D01*
G01X6299200Y3387900D02*
X6220500D01*
Y3412300D01*
X6224400Y3420100D01*
X6229700Y3424900D01*
X6240200Y3426900D01*
X6250700Y3424900D01*
X6257200Y3419100D01*
X6261200Y3412300D01*
Y3387900D01*
G01Y3412300D02*
X6299200Y3426900D01*
G01Y3486100D02*
X6297900Y3492900D01*
X6294000Y3500700D01*
X6287400Y3505600D01*
X6278200Y3507500D01*
X6269000Y3505600D01*
X6261200Y3499700D01*
X6257200Y3491000D01*
Y3481200D01*
X6254600Y3475400D01*
X6248000Y3470500D01*
X6238900Y3468600D01*
X6229700Y3471500D01*
X6223100Y3478300D01*
X6220500Y3486100D01*
X6223100Y3493900D01*
X6229700Y3500700D01*
X6238900Y3503600D01*
X6248000Y3501700D01*
X6254600Y3496800D01*
X6257200Y3491000D01*
Y3481200D01*
X6261200Y3472500D01*
X6269000Y3466600D01*
X6278200Y3464700D01*
X6287400Y3466600D01*
X6294000Y3471500D01*
X6297900Y3479300D01*
X6299200Y3486100D01*
G01X6769100Y3111500D02*
X6057900D01*
Y3365500D01*
X6769100D01*
Y3111500D01*
G01X6294300Y3873500D02*
Y3952200D01*
X6313800D01*
X6321500Y3948300D01*
X6327400Y3943000D01*
X6332200Y3935100D01*
X6336100Y3926000D01*
X6337100Y3912800D01*
X6336100Y3899700D01*
X6332200Y3890600D01*
X6327400Y3882700D01*
X6321500Y3877400D01*
X6313800Y3873500D01*
X6294300D01*
G01X6394400D02*
Y3952200D01*
X6382700Y3936500D01*
G01Y3873500D02*
X6406100D01*
G01X6223000Y4254500D02*
X6705600D01*
Y4000500D01*
X6223000D01*
Y4254500D01*
G01X6311900D02*
Y4000500D01*
G01X6299200Y4254500D02*
Y4000500D01*
G01X6230800Y4445000D02*
Y4523700D01*
X6250300D01*
X6258000Y4519800D01*
X6263900Y4514500D01*
X6268700Y4506600D01*
X6272600Y4497500D01*
X6273600Y4484300D01*
X6272600Y4471200D01*
X6268700Y4462100D01*
X6263900Y4454200D01*
X6258000Y4448900D01*
X6250300Y4445000D01*
X6230800D01*
G01X6312400Y4510600D02*
X6318200Y4518500D01*
X6325100Y4522400D01*
X6332800Y4523700D01*
X6342600Y4521100D01*
X6349400Y4514500D01*
X6351300Y4506600D01*
X6350400Y4498800D01*
X6346500Y4492200D01*
X6327000Y4479100D01*
X6318200Y4469900D01*
X6312400Y4456800D01*
X6310500Y4445000D01*
X6351300D01*
G01X6667500Y4572000D02*
X6184900D01*
Y4826000D01*
X6667500D01*
Y4572000D01*
G01X6100600Y5334000D02*
Y5412700D01*
X6125000D01*
X6132800Y5408800D01*
X6137600Y5403500D01*
X6139600Y5393000D01*
X6137600Y5382500D01*
X6131800Y5376000D01*
X6125000Y5372000D01*
X6100600D01*
G01X6125000D02*
X6139600Y5334000D01*
G01X6196900D02*
X6198800Y5351100D01*
X6201700Y5365500D01*
X6205600Y5378600D01*
X6210500Y5393000D01*
X6218300Y5412700D01*
X6179300D01*
G01X6057900Y5270500D02*
X6769100D01*
Y5016500D01*
X6057900D01*
Y5270500D01*
G01X6569300Y2349500D02*
Y2428200D01*
X6593700D01*
X6601500Y2424300D01*
X6606300Y2419000D01*
X6608300Y2408500D01*
X6606300Y2398000D01*
X6600500Y2391500D01*
X6593700Y2387500D01*
X6569300D01*
G01X6593700D02*
X6608300Y2349500D01*
G01X6667500D02*
Y2428200D01*
X6655800Y2412500D01*
G01Y2349500D02*
X6679200D01*
G01X6729700Y2358700D02*
X6736500Y2352100D01*
X6744300Y2349500D01*
X6752000Y2352100D01*
X6758900Y2360000D01*
X6763700Y2371800D01*
X6765700Y2383600D01*
Y2398000D01*
X6763700Y2409800D01*
X6758900Y2420300D01*
X6753000Y2425600D01*
X6746200Y2428200D01*
X6738400Y2425600D01*
X6732600Y2420300D01*
X6728700Y2412500D01*
X6726700Y2402000D01*
X6728700Y2392800D01*
X6733500Y2383600D01*
X6739400Y2378400D01*
X6746200Y2377000D01*
X6754000Y2379700D01*
X6759800Y2386200D01*
X6765700Y2398000D01*
G01X7031600Y2590800D02*
Y2669500D01*
X7056000D01*
X7063800Y2665600D01*
X7068600Y2660300D01*
X7070600Y2649800D01*
X7068600Y2639300D01*
X7062800Y2632800D01*
X7056000Y2628800D01*
X7031600D01*
G01X7056000D02*
X7070600Y2590800D01*
G01X7111300Y2656400D02*
X7117100Y2664300D01*
X7124000Y2668200D01*
X7131700Y2669500D01*
X7141500Y2666900D01*
X7148300Y2660300D01*
X7150200Y2652400D01*
X7149300Y2644600D01*
X7145400Y2638000D01*
X7125900Y2624900D01*
X7117100Y2615700D01*
X7111300Y2602600D01*
X7109400Y2590800D01*
X7150200D01*
G01X7208500D02*
Y2669500D01*
X7196800Y2653800D01*
G01Y2590800D02*
X7220200D01*
G01X6794500Y2120900D02*
Y2832100D01*
X7048500D01*
Y2120900D01*
X6794500D01*
G01X6578600Y4572000D02*
Y4826000D01*
G01X6591300Y4572000D02*
Y4826000D01*
G01X8356600Y1079500D02*
X7645400D01*
Y1333500D01*
X8356600D01*
Y1079500D01*
G01X7886700Y1316600D02*
X7808000D01*
Y1341000D01*
X7811900Y1348800D01*
X7817200Y1353600D01*
X7827700Y1355600D01*
X7838200Y1353600D01*
X7844700Y1347800D01*
X7848700Y1341000D01*
Y1316600D01*
G01Y1341000D02*
X7886700Y1355600D01*
G01Y1414800D02*
X7808000D01*
X7823700Y1403100D01*
G01X7886700D02*
Y1426500D01*
G01Y1491600D02*
X7869600Y1493500D01*
X7855200Y1496400D01*
X7842100Y1500300D01*
X7827700Y1505200D01*
X7808000Y1513000D01*
Y1474000D01*
G01X7594600Y3111500D02*
X7747000D01*
X7810500Y3048000D01*
X7937500D01*
X8001000Y3111500D01*
X8153400D01*
Y2095500D01*
X7594600D01*
Y3111500D01*
G01X7645400Y3619500D02*
X8356600D01*
Y3365500D01*
X7645400D01*
Y3619500D01*
G01X8194200Y3190200D02*
Y3133800D01*
X8198100Y3122000D01*
X8205900Y3114100D01*
X8215600Y3111500D01*
X8225300Y3114100D01*
X8233100Y3122000D01*
X8237000Y3133800D01*
Y3190200D01*
G01X8306000Y3111500D02*
Y3190200D01*
X8270000Y3133800D01*
X8318600D01*
G01X8093300Y3683000D02*
Y3761700D01*
X8117700D01*
X8125500Y3757800D01*
X8130300Y3752500D01*
X8132300Y3742000D01*
X8130300Y3731500D01*
X8124500Y3725000D01*
X8117700Y3721000D01*
X8093300D01*
G01X8117700D02*
X8132300Y3683000D01*
G01X8191500D02*
Y3761700D01*
X8179800Y3746000D01*
G01Y3683000D02*
X8203200D01*
G01X8270200D02*
X8277000Y3684300D01*
X8284800Y3688200D01*
X8289700Y3694800D01*
X8291600Y3704000D01*
X8289700Y3713200D01*
X8283800Y3721000D01*
X8275100Y3725000D01*
X8265300D01*
X8259500Y3727600D01*
X8254600Y3734200D01*
X8252700Y3743300D01*
X8255600Y3752500D01*
X8262400Y3759100D01*
X8270200Y3761700D01*
X8278000Y3759100D01*
X8284800Y3752500D01*
X8287700Y3743300D01*
X8285800Y3734200D01*
X8280900Y3727600D01*
X8275100Y3725000D01*
X8265300D01*
X8256600Y3721000D01*
X8250700Y3713200D01*
X8248800Y3704000D01*
X8250700Y3694800D01*
X8255600Y3688200D01*
X8263400Y3684300D01*
X8270200Y3683000D01*
G01X9627000Y2873000D02*
X9373000D01*
Y3381000D01*
X9627000D01*
Y2873000D01*
G01X9339100Y3444700D02*
X9344000Y3436900D01*
X9349800Y3431600D01*
X9356700Y3429000D01*
X9364400Y3431600D01*
X9370300Y3436900D01*
X9376100Y3444700D01*
X9378100Y3455200D01*
Y3507700D01*
G01X9418800Y3494600D02*
X9424600Y3502500D01*
X9431500Y3506400D01*
X9439200Y3507700D01*
X9449000Y3505100D01*
X9455800Y3498500D01*
X9457700Y3490600D01*
X9456800Y3482800D01*
X9452900Y3476200D01*
X9433400Y3463100D01*
X9424600Y3453900D01*
X9418800Y3440800D01*
X9416900Y3429000D01*
X9457700D01*
M02*
