G04 ================== begin FILE IDENTIFICATION RECORD ==================*
G04 Layout Name:  C:/Users/user/Desktop/work/DA_CONVERTOR/allegro/DA_CONVERTOR2.brd*
G04 Film Name:    soldb*
G04 File Format:  Gerber RS274X*
G04 File Origin:  Cadence Allegro 17.2-P019*
G04 Origin Date:  Wed Jul 31 16:14:21 2019*
G04 *
G04 Layer:  VIA CLASS/SOLDERMASK_BOTTOM*
G04 Layer:  PIN/SOLDERMASK_BOTTOM*
G04 Layer:  PACKAGE GEOMETRY/SOLDERMASK_BOTTOM*
G04 Layer:  BOARD GEOMETRY/SOLDERMASK_BOTTOM*
G04 *
G04 Offset:    (0.000 0.000)*
G04 Mirror:    No*
G04 Mode:      Positive*
G04 Rotation:  0*
G04 FullContactRelief:  No*
G04 UndefLineWidth:     0.000*
G04 ================== end FILE IDENTIFICATION RECORD ====================*
%FSLAX25Y25*MOMM*%
%IR0*IPPOS*OFA0.00000B0.00000*MIA0B0*SFA1.00000B1.00000*%
%ADD12C,2.032*%
%ADD11C,1.905*%
%ADD10C,3.683*%
%ADD13R,1.905X1.905*%
%LPD*%
G75*
G54D10*
X500000Y500000D03*
Y6500000D03*
X9500000Y500000D03*
Y6500000D03*
G54D11*
X500000Y2738000D03*
Y2992000D03*
Y3246000D03*
Y3500000D03*
X762000Y5397500D03*
X508000D03*
X1550000Y4888000D03*
Y5142000D03*
Y5396000D03*
X2413000Y1714500D03*
Y1968500D03*
Y2222500D03*
Y2476500D03*
Y2730500D03*
Y2984500D03*
X2312000Y4888000D03*
Y5142000D03*
Y5396000D03*
Y5650000D03*
X3175000Y1714500D03*
Y1968500D03*
Y2222500D03*
Y2476500D03*
Y2730500D03*
Y2984500D03*
Y3238500D03*
X4445000Y4889500D03*
Y5143500D03*
Y5397500D03*
X5207000Y4889500D03*
Y5143500D03*
Y5397500D03*
Y5651500D03*
X5930900Y4699000D03*
X6959600Y4127500D03*
X7493000Y2222500D03*
Y2476500D03*
Y2730500D03*
X8255000Y2222500D03*
Y2476500D03*
Y2730500D03*
Y2984500D03*
X9500000Y3254000D03*
Y3000000D03*
G54D12*
X1143000Y4127500D03*
Y5143500D03*
X1524000Y4127500D03*
X1550000Y6200000D03*
X2540000Y4127500D03*
X2566000Y6200000D03*
X3492500Y1968500D03*
Y1714500D03*
Y2730500D03*
Y2476500D03*
X3429000Y4381500D03*
X2984500Y5143500D03*
X4000500D03*
X4191000Y6032500D03*
X4508500Y1968500D03*
Y1714500D03*
Y2730500D03*
Y2476500D03*
X4445000Y4381500D03*
X5334000Y1968500D03*
X5715000Y1460500D03*
Y2476500D03*
X5334000Y2984500D03*
X5207000Y6032500D03*
X6413500Y1460500D03*
Y2476500D03*
X5905500Y3238500D03*
Y5143500D03*
X6921500Y1968500D03*
Y3238500D03*
Y2984500D03*
Y5143500D03*
X7493000Y1206500D03*
Y3492500D03*
X8509000Y1206500D03*
Y3492500D03*
G54D13*
X1550000Y5650000D03*
X2413000Y3238500D03*
X4445000Y5651500D03*
X5969000Y4127500D03*
X6921500Y4699000D03*
X7493000Y2984500D03*
M02*
